screens;
 
http://baypic.net/img-519d9dbcdc71f.html 
 
http://baypic.net/img-519d9dbf52534.html 
 
http://baypic.net/img-519d9dc194b91.html 

Format : MPEG-4
Format profile : Base Media
Codec ID : isom
File size : 1.63 GiB
Duration : 18mn 26s
Overall bit rate : 12.6 Mbps
Writing application : Lavf54.37.100

Video
ID : 1
Format : AVC
Format/Info : Advanced Video Codec
Format profile : High@L4.1
Format settings, CABAC : Yes
Format settings, ReFrames : 5 frames
Codec ID : avc1
Codec ID/Info : Advanced Video Coding
Duration : 18mn 26s
Bit rate : 12.0 Mbps
Width : 1 920 pixels
Height : 1 080 pixels
Display aspect ratio : 16:9
Frame rate mode : Constant
Frame rate : 29.970 fps
Color space : YUV
Chroma subsampling : 4:2:0
Bit depth : 8 bits
Scan type : Progressive
Bits/(Pixel*Frame) : 0.193
Stream size : 1.54 GiB (95%)
Tagged date : UTC 2013-05-15 08:38:04

Audio
ID : 2
Format : AAC
Format/Info : Advanced Audio Codec
Format profile : LC
Codec ID : 40
Duration : 18mn 26s
Duration_LastFrame : 33ms
Bit rate mode : Constant
Bit rate : 128 Kbps
Channel(s) : 2 channels
Channel positions : Front: L R
Sampling rate : 48.0 KHz
Compression mode : Lossy
Stream size : 16.9 MiB (1%)
